HIERARCHY
ROOT Hips
{
	OFFSET -14.64140 90.27770 -84.91600
	CHANNELS 6 Xposition Yposition Zposition Zrotation Xrotation Yrotation
	JOINT Spine
	{
		OFFSET 0.00000 13.20850 -1.60436
		CHANNELS 3 Zrotation Xrotation Yrotation
		JOINT Spine1
		{
			OFFSET 0.00000 8.61716 0.00000
			CHANNELS 3 Zrotation Xrotation Yrotation
			JOINT Spine2
			{
				OFFSET 0.00000 8.61717 0.00000
				CHANNELS 3 Zrotation Xrotation Yrotation
				JOINT Spine3
				{
					OFFSET 0.00000 8.61717 0.00000
					CHANNELS 3 Zrotation Xrotation Yrotation
					JOINT Neck
					{
						OFFSET 0.00000 11.07920 1.10792
						CHANNELS 3 Zrotation Xrotation Yrotation
						JOINT Neck1
						{
							OFFSET 0.00000 7.08032 0.00000
							CHANNELS 3 Zrotation Xrotation Yrotation
							JOINT Head
							{
								OFFSET 0.00000 7.08031 0.00000
								CHANNELS 3 Zrotation Xrotation Yrotation
								End site
								{
									OFFSET 0.00000 0.00000 0.00000
								}
							}
						}
					}
					JOINT RightShoulder
					{
						OFFSET -0.01000 7.91373 5.19711
						CHANNELS 3 Zrotation Xrotation Yrotation
						JOINT RightArm
						{
							OFFSET -18.41580 0.00000 0.00000
							CHANNELS 3 Zrotation Xrotation Yrotation
							JOINT RightForeArm
							{
								OFFSET -29.11090 0.00000 0.00000
								CHANNELS 3 Zrotation Xrotation Yrotation
								JOINT RightHand
								{
									OFFSET -24.65040 0.00000 0.00000
									CHANNELS 3 Zrotation Xrotation Yrotation
									JOINT RightHandThumb1
									{
										OFFSET -5.35114 -0.85590 3.97906
										CHANNELS 3 Zrotation Xrotation Yrotation
										JOINT RightHandThumb2
										{
											OFFSET -4.52789 0.00000 0.00000
											CHANNELS 3 Zrotation Xrotation Yrotation
											JOINT RightHandThumb3
											{
												OFFSET -2.46976 0.00000 0.00000
												CHANNELS 3 Zrotation Xrotation Yrotation
												End site
												{
													OFFSET 0.00000 0.00000 0.00000
												}
											}
										}
									}
									JOINT RightHandIndex1
									{
										OFFSET -14.26970 0.00000 2.88139
										CHANNELS 3 Zrotation Xrotation Yrotation
										JOINT RightHandIndex2
										{
											OFFSET -5.48836 0.00000 0.00000
											CHANNELS 3 Zrotation Xrotation Yrotation
											JOINT RightHandIndex3
											{
												OFFSET -3.01859 0.00000 0.00000
												CHANNELS 3 Zrotation Xrotation Yrotation
												End site
												{
													OFFSET 0.00000 0.00000 0.00000
												}
											}
										}
									}
									JOINT RightHandMiddle1
									{
										OFFSET -14.26970 0.00000 -0.09147
										CHANNELS 3 Zrotation Xrotation Yrotation
										JOINT RightHandMiddle2
										{
											OFFSET -6.17441 0.00000 0.00000
											CHANNELS 3 Zrotation Xrotation Yrotation
											JOINT RightHandMiddle3
											{
												OFFSET -3.56743 0.00000 0.00000
												CHANNELS 3 Zrotation Xrotation Yrotation
												End site
												{
													OFFSET 0.00000 0.00000 0.00000
												}
											}
										}
									}
									JOINT RightHandRing1
									{
										OFFSET -12.69180 0.00000 -3.06433
										CHANNELS 3 Zrotation Xrotation Yrotation
										JOINT RightHandRing2
										{
											OFFSET -5.62556 0.00000 0.00000
											CHANNELS 3 Zrotation Xrotation Yrotation
											JOINT RightHandRing3
											{
												OFFSET -3.56744 0.00000 0.00000
												CHANNELS 3 Zrotation Xrotation Yrotation
												End site
												{
													OFFSET 0.00000 0.00000 0.00000
												}
											}
										}
									}
									JOINT RightHandPinky1
									{
										OFFSET -11.11390 0.00000 -6.03719
										CHANNELS 3 Zrotation Xrotation Yrotation
										JOINT RightHandPinky2
										{
											OFFSET -4.52789 0.00000 0.00000
											CHANNELS 3 Zrotation Xrotation Yrotation
											JOINT RightHandPinky3
											{
												OFFSET -2.46976 0.00000 0.00000
												CHANNELS 3 Zrotation Xrotation Yrotation
												End site
												{
													OFFSET 0.00000 0.00000 0.00000
												}
											}
										}
									}
								}
							}
						}
					}
					JOINT LeftShoulder
					{
						OFFSET 0.01000 7.91373 5.19711
						CHANNELS 3 Zrotation Xrotation Yrotation
						JOINT LeftArm
						{
							OFFSET 18.41580 0.00000 0.00000
							CHANNELS 3 Zrotation Xrotation Yrotation
							JOINT LeftForeArm
							{
								OFFSET 29.11090 0.00000 0.00000
								CHANNELS 3 Zrotation Xrotation Yrotation
								JOINT LeftHand
								{
									OFFSET 24.65040 0.00000 0.00000
									CHANNELS 3 Zrotation Xrotation Yrotation
									JOINT LeftHandThumb1
									{
										OFFSET 5.35114 -0.85590 3.97906
										CHANNELS 3 Zrotation Xrotation Yrotation
										JOINT LeftHandThumb2
										{
											OFFSET 4.52789 0.00000 0.00000
											CHANNELS 3 Zrotation Xrotation Yrotation
											JOINT LeftHandThumb3
											{
												OFFSET 2.46977 0.00000 0.00000
												CHANNELS 3 Zrotation Xrotation Yrotation
												End site
												{
													OFFSET 0.00000 0.00000 0.00000
												}
											}
										}
									}
									JOINT LeftHandIndex1
									{
										OFFSET 14.26970 0.00000 2.88139
										CHANNELS 3 Zrotation Xrotation Yrotation
										JOINT LeftHandIndex2
										{
											OFFSET 5.48836 0.00000 0.00000
											CHANNELS 3 Zrotation Xrotation Yrotation
											JOINT LeftHandIndex3
											{
												OFFSET 3.01859 0.00000 0.00000
												CHANNELS 3 Zrotation Xrotation Yrotation
												End site
												{
													OFFSET 0.00000 0.00000 0.00000
												}
											}
										}
									}
									JOINT LeftHandMiddle1
									{
										OFFSET 14.26970 0.00000 -0.09147
										CHANNELS 3 Zrotation Xrotation Yrotation
										JOINT LeftHandMiddle2
										{
											OFFSET 6.17440 0.00000 0.00000
											CHANNELS 3 Zrotation Xrotation Yrotation
											JOINT LeftHandMiddle3
											{
												OFFSET 3.56744 0.00000 0.00000
												CHANNELS 3 Zrotation Xrotation Yrotation
												End site
												{
													OFFSET 0.00000 0.00000 0.00000
												}
											}
										}
									}
									JOINT LeftHandRing1
									{
										OFFSET 12.69180 0.00000 -3.06433
										CHANNELS 3 Zrotation Xrotation Yrotation
										JOINT LeftHandRing2
										{
											OFFSET 5.62556 0.00000 0.00000
											CHANNELS 3 Zrotation Xrotation Yrotation
											JOINT LeftHandRing3
											{
												OFFSET 3.56744 0.00000 0.00000
												CHANNELS 3 Zrotation Xrotation Yrotation
												End site
												{
													OFFSET 0.00000 0.00000 0.00000
												}
											}
										}
									}
									JOINT LeftHandPinky1
									{
										OFFSET 11.11390 0.00000 -6.03719
										CHANNELS 3 Zrotation Xrotation Yrotation
										JOINT LeftHandPinky2
										{
											OFFSET 4.52789 0.00000 0.00000
											CHANNELS 3 Zrotation Xrotation Yrotation
											JOINT LeftHandPinky3
											{
												OFFSET 2.46976 0.00000 0.00000
												CHANNELS 3 Zrotation Xrotation Yrotation
												End site
												{
													OFFSET 0.00000 0.00000 0.00000
												}
											}
										}
									}
								}
							}
						}
					}
					JOINT pCube4
					{
						OFFSET 0.00000 10.91090 1.10792
						CHANNELS 3 Zrotation Xrotation Yrotation
						End site
						{
							OFFSET 0.00000 0.00000 0.00000
						}
					}
				}
			}
		}
	}
	JOINT RightUpLeg
	{
		OFFSET -9.98441 0.00000 0.00000
		CHANNELS 3 Zrotation Xrotation Yrotation
		JOINT RightLeg
		{
			OFFSET 0.00000 -42.11790 0.00000
			CHANNELS 3 Zrotation Xrotation Yrotation
			JOINT RightFoot
			{
				OFFSET 0.00000 -45.00020 -0.00001
				CHANNELS 3 Zrotation Xrotation Yrotation
				JOINT RightForeFoot
				{
					OFFSET 0.00000 -3.74820 0.00000
					CHANNELS 3 Zrotation Xrotation Yrotation
					JOINT RightToeBase
					{
						OFFSET 0.00000 0.06325 14.43120
						CHANNELS 3 Zrotation Xrotation Yrotation
						End site
						{
							OFFSET 0.00000 0.00000 0.00000
						}
					}
				}
			}
		}
	}
	JOINT LeftUpLeg
	{
		OFFSET 9.98441 0.00000 0.00000
		CHANNELS 3 Zrotation Xrotation Yrotation
		JOINT LeftLeg
		{
			OFFSET 0.00000 -42.11800 0.00000
			CHANNELS 3 Zrotation Xrotation Yrotation
			JOINT LeftFoot
			{
				OFFSET 0.00000 -45.00070 0.00000
				CHANNELS 3 Zrotation Xrotation Yrotation
				JOINT LeftForeFoot
				{
					OFFSET 0.00000 -3.74824 0.00000
					CHANNELS 3 Zrotation Xrotation Yrotation
					JOINT LeftToeBase
					{
						OFFSET 0.00000 0.06325 14.43110
						CHANNELS 3 Zrotation Xrotation Yrotation
						End site
						{
							OFFSET 0.00000 0.00000 0.00000
						}
					}
				}
			}
		}
	}
}
MOTION
Frames: 4
Frame Time: 0.050000
0.033934215620248065 -0.04519516496956081 0.03441633576217886 0.018936014103455766 0.0409943971071611 -0.030616537595523324 -3.3519788479334225 -0.6088186604272525 -0.8407557730734966 -0.9137478190144174 3.516076211175164 0.3721787121844627 -1.2236440363677417 -2.1105444060574023 -1.4725850308629806 -0.22392452809952929 0.22468161515243332 -0.828902163232094 -0.32423978508129353 12.179740137109349 0.9803256303028836 0.2948266558780905 0.26273933949021133 1.3640495632106615 -0.003964475666816614 -14.310910928188985 0.11702357187969468 -3.3720270239859076 1.4456036822928935 -14.246400551268938 73.14003579938475 26.06789291061886 3.3167969391492877 35.26876378223432 6.5893635928627186 87.19705733096063 23.25270175439248 -0.32598774801032904 -3.827584098520386 4.500399746970288 -0.12516099810773687 -1.6330895346539942 -0.009265612577980939 0.025429882918262682 -56.25039199763295 0.0007212720187298277 -0.014592179723232172 -56.21021482355097 -38.759246375649944 0.00994186440565989 -0.028004152489444357 0.026620878378918154 -0.03386493279244017 0.0375369235387322 -0.0007393407225024373 -0.03186460618080371 -0.014536785051100568 -36.676142959524206 0.026845750012482128 0.031519355747747814 -0.018387103258812435 -0.022029062199583786 0.003201649619376979 0.012613086465562778 0.025051908519529546 0.029962704232726338 -19.782350329214527 0.00975812633288599 -0.02815683339160409 0.03341860147999978 0.006866697309253307 0.01852642796433144 -0.008407692461152071 -0.04785788391549644 0.03203789464730199 24.043297546554022 0.03895332898824964 0.04604714429488945 28.86515677308067 0.018447379939614462 -0.01265113513143822 28.85898488196649 0.014883343590509928 -0.033579009183877497 6.175245607194283 1.440654255101851 12.442531503944247 -73.62899936250913 25.059233807874875 -8.219941512614799 -92.632145571368 9.399850884574883 -106.74744038605328 -20.305028020478392 -1.6388085130815242 0.7619306752162437 -0.43458716755990556 0.07254570841292311 -8.105529410293986 0.045945813361089216 -0.02033106935755402 44.6123497921885 -0.029986354037960856 -0.04024760429531452 44.588215729793525 12.494563354928001 0.03374984716340932 -0.026720777147889715 0.000978818575823778 -0.007127551201702735 -0.037171712459831606 0.0025421802441500125 0.03937875706009101 0.038671013083945854 11.14332204138106 -0.009670413893951272 -0.03534785329595075 0.00790733528453572 -0.04470109453324333 -0.0014036763158100758 0.04266452943575122 0.04074869937893523 -0.04003822971232917 4.808596054591556 0.039176153353717554 0.03452496369011584 0.007029607522875001 -0.02847953576342689 -0.04643966749885126 -0.04935690401815433 -0.016988980110231366 0.023030804198139763 -5.58890614788606 0.027675801507451574 0.04495455379184597 -6.701782994807288 0.02677138192522777 -0.02296700560694881 -6.68042986189494 0.006322497236165259 0.016697824406995104 -0.013552771944545981 0.014131494019787931 0.04087060335684797 8.044919127345771 3.449423295213074 -19.253095778346655 -0.04004034371203546 10.36718495768444 0.0027858712356205965 -5.632688801803738 -15.686243591819514 3.21500079492417 0.013292854263359112 0.027078486702522688 -0.005047439176032053 0.024218238269335106 4.721023028601719 -0.0016604491616083212 12.449221953511227 -8.207852564637168 6.862702645397259 -0.026937150528961566 46.39889171957317 0.022415359021227703 -4.356258155143752 -14.700114176654541 -3.842700337441771 -0.021348724449301575 -0.036313506292470106 -0.003776348570467354 -0.0034311154121455926 -10.765627631148302 0.00988744815544467 
-0.004052804318344315 -0.023701943512597298 0.03864587789361425 0.013247364096043804 -0.0475828202050842 0.002190092298364065 -3.3682404641734376 -0.6203641004695375 -0.8428475246197906 -0.8778221326258258 3.544451192293366 0.4061639956235208 -1.204157191308155 -2.0604423481695746 -1.5412691214218417 -0.17718394335160817 0.2572733323668905 -0.8848552003359585 -0.3588472918480773 12.181909033237767 1.1727002017598585 0.261823764333143 0.39961720043815113 1.788666004920145 -0.06998592387922847 -14.136885255719184 0.13462974367377833 -3.373140578672826 1.3982253015554835 -14.283847327591996 72.7279290631388 25.580875032198563 3.684043355150992 36.16952156387557 5.5009814740321925 90.86472740684876 22.239639772207102 -0.32078680629507605 -3.6885871414921163 4.5735117650251365 -0.1662802346614881 -1.60060279758234 0.03925468475575261 0.019247069949234422 -56.27634516612848 -0.032908163999073245 0.00527471714113396 -56.19984884612571 -38.773815297502544 -0.022278295568741516 -0.016436302150990945 -0.033856325565912414 0.02720291778465123 0.04146292621125478 0.009995299719275097 -0.0006752479337732778 0.004578475659459636 -36.69074283921228 -0.04435630383064725 -0.02777388949736395 0.02970125246772687 -0.003103910215258178 0.04079761571277609 -0.04810762584378113 0.007473489457218645 0.0010986010714768761 -19.807055502178784 0.03225487413241632 -0.038173086114808054 -0.03602827307945226 0.005615998423683313 -0.007263603474599304 -0.025325830027604142 0.038266382846899843 0.00847644577960068 24.06309339669979 -0.03993751862577663 0.021245628582874918 28.825607839633307 -0.024146108641030176 0.02946363351147022 28.880568000335206 0.021323483988740902 0.03681901156228623 6.048989274289847 1.4439203595706753 12.407347557118745 -73.4073251458518 25.38143905435296 -8.036001128287745 -90.85303007877579 8.898813465730397 -105.6127125612606 -19.121108967084467 -0.76585578354343 0.18170758881689564 -0.4770035001253106 0.043499792010522995 -8.088097434156696 0.03879343229513286 0.010532441070422137 44.56442119008396 -0.04694367908124048 -0.011466206604051574 44.53778635370934 12.446702854349237 0.03238845846827361 0.00859795327316511 -0.039034264261624554 0.02460510893179769 -0.023723255202115708 -0.026193135766006233 0.01668574311649736 -0.010019547096988633 11.140257114016377 -0.03164721163440488 0.01704927497944989 -0.01240808417395883 0.04861857187153976 0.038338535687108204 0.006259279142422579 0.03897445097051606 -0.043960802823175035 4.7397409235136125 0.007093387377547261 -0.04743811651683235 0.012888726108056954 -0.0022402629007863845 0.007987860100668574 0.02528332011105266 -0.03139846664048008 0.0464852097949757 -5.640589370856549 -0.02414893215905793 -0.02612182115060928 -6.698539033002101 -6.157987584261474e-05 0.02530100049304347 -6.713064706400513 -0.008933570511320604 0.00811477464907152 0.026357643808090137 -0.005846561876295279 0.04523672041093506 8.089760688376922 3.510921467032773 -19.24980241361718 -0.029888813671630217 10.40260720490524 0.04960162564350071 -5.647011830603293 -15.667881281936879 3.1479247041272784 0.03874943813454962 0.0075168840712429245 -0.03203806617849645 0.027892662685823508 4.673118862971878 0.040528486268726155 12.4338101186773 -8.20429123489001 6.887501774115814 0.04241620777373757 46.37441291759515 -0.0002746549962187644 -4.295556714270917 -14.766398223790224 -3.806542967945145 -0.017441245552014848 -0.014649292396406163 0.0355904373565601 -0.04880691943694217 -10.734473735090893 -0.03542974341640107 
0.02401770573126011 0.0004089893734251486 0.046900366416105815 -0.001746594795669854 -0.009508214243759807 0.026717709237988985 -3.337988511485494 -0.6357716168490719 -0.8141899524882695 -0.9669702835984616 3.593312850805559 0.34373550248930507 -1.1643660045541593 -2.0073759276846235 -1.5510034439478133 -0.1455187300576663 0.3109533136580928 -0.9095055094224797 -0.3713706692616455 12.307160931963192 1.3027359273918837 0.2282924015763536 0.43582703761422736 1.9530244019342984 -0.19119971615495554 -13.938617404997856 0.17839836923021254 -3.3206768096639587 1.4511961167808343 -14.365418761534267 72.31555402011915 25.32213119236728 3.750040083591318 35.700144016948414 4.538830107702006 92.94816665951316 21.26683746692527 -0.3759787151269843 -3.6805561455928943 4.544205363166227 -0.12518815390944565 -1.5876460294219805 0.01494559703859294 0.02450230033906044 -56.22821217664363 0.04650723108428184 0.02338788921338171 -56.25508411549546 -38.75476074657825 -0.0127244750135146 0.036811109251460444 0.03725208586205829 0.031084573118019387 0.04146783047311025 -0.042657157427650416 -0.03173678821037786 -0.04424791375683619 -36.691977731604375 -0.01452656043569433 0.0029706412796154805 0.011050355149611661 0.023883150518319803 0.0051111576593261794 -0.02140335246262362 0.04502666539956205 -0.043321154856994906 -19.729634677379764 0.001972697160353577 -0.004599531290480376 0.007631777844265157 -0.04743264042128176 -0.029375224353000703 0.04422085286018956 0.024002201694677743 -0.03350466253605693 24.023626409352072 -0.002090691021114068 0.002703191412056401 28.852127167445087 -0.012874422207422144 -0.007190690560226828 28.900843220285658 0.010923657053521139 0.04957902981451077 5.962576910588008 1.3982554392391524 12.50530367913146 -73.05813458550281 25.571354733227643 -7.953706326870586 -86.46142910073019 8.967080855125957 -103.04858588764044 -17.526245206780356 -0.12568433648892563 -0.224833302733974 -0.4460291460582513 0.07068849728529775 -8.170955566249553 -0.03834669217203548 -0.016564855767245965 44.55748514795403 -0.0017575168738670328 0.04297189318450696 44.54626037249183 12.481054192747806 -0.013143912992983555 -0.03350772733230125 -0.0392874678790573 0.007547412039005692 0.00542469563360498 0.011634600057918821 -0.020178298815548293 0.008379848786060821 11.128923944448086 -0.01710925395402113 0.040555503890810425 0.021846759973912656 0.015303969760460123 0.014112159943154668 -0.04573010755786687 0.020953410857885862 0.014926467335805797 4.785529369233853 -0.03363142397561285 -0.03204244454197211 0.03459681421473676 -0.010115878661337663 0.0046340160736878565 -0.008521520643833552 -0.03789128310172235 0.037264011322898576 -5.616183582652794 0.04651739560165858 -0.024542927072937905 -6.699780657951226 0.015097325982782015 -0.03467780613694242 -6.736685247888385 0.04845522102226651 -0.03216376625378517 -0.0003704680997608838 -0.026096651154006275 0.03203055714887818 8.029560218739526 3.4580636068549677 -19.191091838850145 -0.008242243370103071 10.396248949728836 0.01662707316889133 -5.659718727971722 -15.629705627105636 3.2063476623158023 -0.021417967686238486 0.008988235175413056 0.027482830285256304 -0.012615503164283445 4.660552373550584 0.01999788482975797 12.480455054531468 -8.270381957138747 6.854725463282635 0.0015584009775660803 46.37937738784322 0.03715740889855394 -4.294797499556685 -14.727323354778086 -3.853323405518934 -0.029219676543312267 -0.016692054294802833 0.006711595280071615 -0.013431047509431703 -10.743998474313237 -0.02797957886545917 
0.024665966284137038 -0.03002167544886024 0.04213282461338815 0.010541889209198081 -0.046014964026409255 -0.025989792563321536 -3.2383877915065153 -0.6476146743464898 -0.7841557816467422 -0.9693553646780695 3.6265109036660372 0.38389199639051297 -1.2029668445050474 -2.040126000288351 -1.4051828376261848 -0.10249146260891515 0.37203992362283583 -0.8488397957292957 -0.4358209631626394 12.476628938085803 1.3399850930072943 0.18051542726132702 0.5098423778695682 2.0451852440650287 -0.22592162046303366 -13.892061662536838 0.22575918133212208 -3.4392612670469838 1.395744200079484 -14.548071447867011 72.00540616423442 25.70828938666574 3.4372259629474 33.65313658091089 4.19325055784819 92.85858377024502 20.586427423267434 -0.3138894814158409 -3.880921255041526 4.506004664274091 -0.1354201270707233 -1.5837969078384777 -0.0037692503992884582 0.024282971163321055 -56.26743974702735 -0.01579176398581181 -0.030025628398351448 -56.22311481309944 -38.7668560709532 -0.01965828843733892 -0.0006630056579574674 -0.04201603997888166 -0.030794271057575404 0.042396530276164586 -0.02902957377300164 -0.004361441025462165 -0.015286695274676083 -36.649462153933364 -0.0007003681475687343 0.021349823513993848 -0.03154572934053478 -0.02689097649220404 0.004459586943778657 -0.034099395583642014 -0.02395109585421419 -0.03510738500020092 -19.716365109134202 -0.033188395959539665 -0.03286052880041741 0.045284125481042194 0.035554464145097844 0.026797638117360214 -0.009447496175236447 0.023587963123569852 0.013039224536996403 24.072353751257218 0.010522324166705397 -0.0059374047242177425 28.8324213284029 0.02448540924188113 -0.02683602595619111 28.84529147576243 0.02335215037187447 -0.03221293675147595 6.006108883069903 1.4249296493108163 12.73389237636704 -72.53364377242731 25.678471802325962 -7.605452677877972 -77.61110550388959 9.839475305761122 -97.5814912231132 -15.610578467399979 0.10495214287349314 -0.22173677220623078 -0.45568928455239915 0.022721477701838265 -8.138161043120371 -0.0026945449185837556 0.03930345581879061 44.567857206461376 0.009953461724255264 -0.030871597360459566 44.60652818200644 12.450660609283815 -0.04921263419177626 -0.024956201771141762 0.026190001256337976 0.02702128672018514 -0.009743436005269479 0.03194343579037656 -0.031202230299929225 -0.039727274655040605 11.155598458244016 0.0338644229990194 0.02993546773213843 0.008029963702404936 0.04539461737782129 0.008087751138983341 0.020352186272585625 0.04114645016849717 -0.048573328815724154 4.777012756713276 0.046211941905037114 -0.02556505695206757 -0.04237569165580054 0.02073437802434369 -0.0054479965035687805 -0.0028420666123749904 0.02890992852708192 -0.03003975467006051 -5.559443160634849 0.013677463713050573 0.023464365269294993 -6.729842914652479 0.04546124882259629 -0.0033203799937444028 -6.705450693962931 -0.04633383007381867 0.03986139503375629 0.002192790976251626 0.030072348918614097 -0.04409785336926954 8.031356415989388 3.4956771600490835 -19.19102207752528 -0.005111398995500098 10.408636741740535 0.01971723378806539 -5.5820534183917445 -15.706499692489531 3.1777469238092917 0.012187063570791376 -0.016138454716555208 -0.045317840019705284 0.042207525981736785 4.7036448198131975 -0.004056873428370276 12.46536301825297 -8.23005442064226 6.8623927535605045 0.03323792519729617 46.33133191883399 0.02588512020876042 -4.288721377187679 -14.729985051123045 -3.8120734710952684 0.018185954768396573 0.018331919503400428 0.02156161082712725 0.024430840735230868 -10.76670949079159 -0.023843893833365402 
